<svg version="1.2" xmlns="http://www.w3.org/2000/svg" viewBox="0 0 668 668" width="668" height="668">
	<title>VG_Logo</title>
	<style>
		.s0 { fill: #ffffff } 
		.s1 { fill: #242424 } 
	</style>
	<path id="Forme 1" class="s0" d="m334.2 541.5c-114.6 0-207.2-92.6-207.2-207.2 0-114.7 92.6-207.3 207.2-207.3 114.7 0 207.3 92.6 207.3 207.3 0 114.6-92.6 207.2-207.3 207.2z"/>
	<path id="VG" class="s1" aria-label="VG"  d="m242.3 489.3q-4.6 0.4-7.3 0.9-2.2 0.4-4.5 0.4-4 0-12.5-4-1.4-0.9-2.8-1.8-0.9-1.4-2.2-2.7-4.5-3.6-8.1-10.8-3.6-7.7-4.5-11.7v-1.4q0-0.8 0.4-3.6 0.5-3.1 1.8-8.5 0.5-1.8 1.9-5.9 1.7-4 1.7-5.3h0.5q0 0.4-0.9 4-0.9 3.2-1.3 5.8 0 2.7 0.8 2.3 0-0.4 1.8-4.5 2.3-4.1 4.5-8.6 2.3-4.9 1.9-6.7-0.5 0.4-1 0.4 0-0.4 0-0.4l-0.9 0.4q0 0.5 0 1.4 0.5 0.9-0.4 1.8-1.4-0.4-1.8-1.8v-0.4q0-2.7 1.3-5.9 1.8-3.1 2.3-5.8l-0.5-2.8q3.2-3.5 4.5-9 1.4-5.8 3.2-9.4 0.9-2.3 2.7-3.6 1.8-1.4 2.2-3.2 0.9-2.7 0.9-4.9 0.5-2.7 2.3-5.4 1.8-2.2 4.5-3.6 2.7-1.8 1.8-4.5l-1.4 0.9v-2.3q4.1-6.7 4.1-8 0-1.4 0.4-2.7 0.5-1.4 4.5-8.2l6.8-9q2.7-4 6.3-11.2 4.1-7.6 8.1-14.9 4.1-7.6 6.3-11.2 7.7-10.4 18-23.4 10.4-13.1 20.2-28.4 7.7-11.7 14-18.4 6.3-7.2 12.6-13.5 6.7-6.3 15.7-15.3v-0.5q-3.5-0.4-9.8-0.9-5.9-0.9-11.3-1.3-4.9-0.5-6.3-0.5-5.9 0-10.8-1.3-4.9-1.8-10.3-1.8-2.3 0-4.5-0.5-2.3-0.4-4.5-0.9-1.8 1.4-5 1.4-2.3 0-5.8-0.9l-1.4 1.8h-1.3q-1.4-0.5-6.3 0-4.5 0-9 0.9-4.1 0.4-5 1.8-1.8-0.5-4.1 0-2.2 0.4-4.5 0-3.1 2.7-12.6 4-9 0.9-17.5 2.3-8.1 0.9-9.5 3.1-25.1 4.5-52.6 16.7-27.4 11.7-53.1 29.7-25.2 18-44.6 40.9-18.9 23-27.9 49.1-1.8 5.9-2.2 12.1 0 6.3-0.9 9.5-0.9 0.9-1.4 0.9-1.8-0.9-1.8-3.6 0-3.2-2.2-3.2l-1.8 1.4q-2.3-1.8-2.3-6.3 0-3.2 0.9-6.3 0.9-3.1 1.4-5.9 5.8-16.6 17.5-33.2 12.2-17.2 27.5-32.5 15.3-15.7 30.2-27.4 6.7-5 13.9-9 7.6-4.1 14.9-8.6 0.8-0.4 5.4-2.7 4.5-2.7 9-4.9 4.5-2.7 4.9-3.2 4.1-1.3 11.7-4.9 8.1-3.6 17.1-7.2 9-4.1 17.1-6.3 8.1-2.7 12.6-2.3h0.5q2.6-2.7 14.3-5.3 11.8-2.8 26.2-5 14.4-2.3 26.5-3.2 12.2-1.3 16.2-0.8v-0.5q1.8-0.9 5-0.9 1.3 0 2.7 0 1.3 0 2.7 0.4 1.8-0.4 3.1-0.4 1.8-0.5 3.2-0.5 2.2 0 4 0.5 2.3 0 4 0.4 1.8-0.9 3.7-0.9 2.2 0 4 0 1.3 0 2.7 0 1.8 0 2.7 0.5 2.2-1.4 3.6-1.4 1.3 0 2.7 0.5 1.8 0.4 2.7 0.9 1.4-0.5 3.2-0.5h3.1q1.4-1.3 1.8-1.3 1.3 0 2.3 1.3 1.3 1.4 2.2 0.9 5-1.8 7.6-1.8 3.2 0 4.5 1.4 1.9 1.4 6.4 1.4 3.6 0 9.8 1.7 6.8 1.4 11.3 3.2 1.4 0 2.2 0.4 1.4 0 1.8 0 2.3 0 2.3 0.9 1.4 1.4 0 2.8-3.1 3.1-7.2 4.9-4.1 1.3-7.6 4.1l-3.6 2.6v2.3q0 3.1-1.4 4.5l-6.8 7.6q-4 4.5-14.3 17.1-9.9 12.6-20.3 28.4-3.1 3.6-11.7 15.3-8.5 11.2-18 25.2-9.4 13.9-16.2 24.8-1.8 2.2-5.8 8.5-4.1 6.3-8.6 14-4 7.2-7.6 13.5-3.7 6.2-4.5 9-13.1 29.2-23.4 48.5-10.4 19-12.2 36v7.7q2.2 4 6.3 4 2.7 0 5.4-1.3 3.1-1.4 5.4-2.7 0.9-1.4 2.2-2.2 1.4-1.4 1.9-2.3 3.5-4 12.5-14.9 9-10.8 19.4-23.3 10.3-13.1 18.9-23.9 8.6-10.8 11.3-14.9 5.8-5.8 7.6-9 2.2-3.5 3.6-6.7 1.8-3.2 5.4-7.2 0.5-0.5 2.7-4.1 2.3-3.5 4.5-7.2 2.3-4 2.7-4 4.9-7.7 10.8-14.9 5.4-6.7 11.3-15.3 5.8-8.5 11.7-14.8 0.8-1.4 4-5.9 3.6-4.9 6.8-9.4 3.5-4.5 4-4.5 0.9-2.2 3.6-5 3.1-2.7 4.9-4.5l11.7-14.8q2.8-3.6 5.5-6.3 3.1-2.7 5.8-5.9 7.2-8.1 12.6-13.5 5.9-5.8 13.9-13 1.8-1.8 6.3-6.8 5-5.4 7.2-5.8l7.7-5.4 8.5-6.3q3.2-2.2 6.3-4.1 3.2-1.8 6.8-3.6 2.2-1.3 7.2-3.1 5-1.8 8.5-2.3 1.4-1.3 4.5-3.1 3.7-1.8 5.9-2.3l15.8-8.1q1.8-0.9 3.6-0.9 2.2-0.4 3.6-1.3l9.9-1.4 1.7-0.4q1.4-1.4 5.9-1.8 4.5-0.9 9-1.3 5-0.5 6.8-0.5h4q0.5-0.5 1.8-0.5 5.9 0 10.4 0.5 4.9 0.5 9.4 1.8 1.8 0.4 3.1 0.9 1.9 0 3.6 0.9 1.9 1.4 6.8 4 5 2.7 5.4 4.5l-1.8 1.9-1.8-2.3q-2.7-1.4-4.9-3.2-2.3-2.2-5.4-2.7-4.1-1.3-7.7-1.3-5.4 0-11.2 1.8-5.5 1.3-10.9 2.2l-8.5 1-7.6 4-1.4-0.5q-1.3 1-6.3 1.8-4.5 0.9-4 2.3-1.8 0-1.8-0.5-5.5 3.2-8.6 6.4-3.1 3.1-9 6.2-2.7 1.4-9 2.8-5.8 1.3-9.5 2.2-2.6 4-9.4 6.8-6.3 2.2-10.4 4.9-30.5 22-56.7 46.8-26.1 24.3-51.3 57.6l-20.2 27.5q-0.9 1.3-2.7 2.7-1.8 0.8-2.7 2.2l-0.9 3.1q-15.3 20.7-22 31.1-6.8 10.4-9 13.5l-13.5 18.9-4.1 6.7-3.6 3.2-2.3 5.4q-0.8 0.9-5.3 8.1-4.1 6.8-8.6 13.9-4.5 7.2-6.3 9.5-4.5 4-4.5 4.5 0.5 0.4-4.5 4.9-1.4 1.4-2.3 3.6-0.8 1.9-2.7 3.2l-1.3 1.8q-2.7 3.2-7.7 5.9-4.9 2.2-6.3 2.2zm136.4 10.8q-7.2 0-11.7-4-4.1-4.5-5.9-4.5-0.9-5-5.4-7.2-4-2.3-7.2-5-1.8-1.3-3.1-3.2-0.9-1.8-2.3-3.6-4.5-6.2-6.7-9.4-2.3-3.1-2.3-11.3 0-8.5 3.2-18.4 3.1-10.4 6.7-17.6 0.9-1.8 2.7-4.9 2.3-3.6 2.7-4.9h0.5q-0.5 3.1-2.3 5.8-1.8 2.2-1.8 5.4 1.8-1.4 6.3-7.7 4.5-6.2 5-8-0.5 0-0.5 0 0-0.5 0-0.5h-0.9q-0.4 0.5-0.4 1.3 0 1-0.9 1.8-0.9-1.8-0.9-2.6 0-3.2 2.2-5.5 2.3-2.7 3.2-4.9v-3.1q3.6-2.3 5.8-7.2 2.3-5.5 4.5-8.6 1.4-1.4 3.2-1.8 1.8-0.9 2.7-2.7 1.3-2.2 1.8-4.5 0.9-2.7 2.7-4.5 1.8-1.4 4.5-1.8 2.7-0.4 2.7-3.6l-1.4 0.5 0.5-2.3q7.2-8.1 13.5-16.7 6.7-8.5 13.9-16.2 2.3-1.8 4.1-3.1 1.8-1.4 3.6-3.2 4.5-4 9-8 4.5-4.5 9-8.6 8.1-7.7 16.2-15.8 8.1-8.5 17.1-14.4 2.2-1.7 4.5-3.1 2.7-1.4 4.9-2.7 9-6.3 18-12.2 9-5.8 18-11.7 6.4-3.6 13.1-6.3 6.8-3.1 13-6.3 7.3-3.6 14.9-6.2 7.6-3.2 15.3-5.9 6.3-2.3 14.8-5.4 9-3.2 15.3-3.2 5.5 0 9 1.8 3.6 1.8 7.2 5.4 3.6 3.2 9.9 8.1 6.8 5 12.2 10.4 5.4 5.4 5.4 10.3 0 5.9-4.5 10.4-4.1 4.5-9 7.2-5 3.2-9.5 7.2-4.5 3.6-10.3 6.7-2.7 4.5-10.8 9-8.1 4.5-13.1 4.5v0.9q-3.1 2.3-7.6 5.9-4.1 3.6-7.7 4.5-0.4 0.5-1.7 0.5-0.5 0.4-1.4 1.7-0.9 0.9-1.4 1.4v0.4q-2.2 0.5-4 1.8-1.8 0.9-4.1 0.9-1.3 2.3-4 2.3-0.5 0.9-1.8 1.8-1.3 0.4-1.8 1.8h-0.5l-1.3-0.5q-1.4 1.9-3.2 1.9-1.8 0-4 0.8-0.5 0.5-2.7 1.8-2.3 1.4-3.2 1.4h-0.4l0.4-0.9q10.9-6.8 20.7-14.4 10.4-8.1 20.7-15.3 4.1-2.7 12.2-9 8.1-6.3 17.1-13.9 9-7.7 14.8-14.9 6.4-7.7 6.4-12.2 0-4.5-5-6.3-5-2.2-8.5-2.2-8.6 0-13.5 3.6-5 3.6-10 3.6l-0.4 1.3q-3.1 0-5.9 2.7-2.7 2.3-6.2 2.3-1 0.9-5.5 3.1-4 2.3-8.5 4.5-4.5 2.3-6.3 3.6-8.1 4.5-16.2 9-8.1 4.5-15.8 9.9-1.7 1-3.6 2.7-1.8 1.4-3.6 2.8l-11.7 6.2q-0.4 0-4.5 3.2-4 3.1-8.1 6.3-3.6 3.1-3.6 3.1-2.2 1.4-9 6.8-6.7 5.4-15.7 13-8.6 7.7-17.1 15.4-8.1 7.6-14 13.5-5.4 5.8-5.8 7.2-4.5 2.2-8.6 8-4 5.9-7.2 9.5-18.4 23.4-33.3 44.5-14.8 20.8-23.8 50.5-0.9 3.1-1.8 6.7-0.9 3.1-0.9 6.8 0 7.6 4 9.4 4.1 1.4 9.9 1.4 13.5 0 24.3-5.5 11.3-5.8 21.6-13 3.6-2.7 7.2-5 4.1-2.2 7.7-4.9 1.3-0.9 2.7-2.3 1.3-1.3 3.1-2.2 2.3-0.9 1.8-0.4-0.4 0.4 1.8-1.4v-0.5l0.5 0.5h0.4q0.9-0.5 7.7-7.2 7.2-6.8 16.6-16.2 9.9-9.4 19.4-18.9 9.4-9.5 16.2-15.8 6.7-6.2 7.2-6.2 0.4-1 1.3-2.3 0.9-1.8 1.8-1.8 1.9-1.4 4.5-4.1 2.7-3.1 4.5-4.5-0.4 0-1.3 0-0.9-0.4-1.8-0.4-0.9 0-7.2 0.9-6.3 0.9-9.9 1.8-0.9 0.4-2.3 1.4-1.3 0.4-3.1 0.4h-12.6l-10.8 6.3q-1.4 0.4-0.9 0 0.4-0.5-0.9-0.5-1.4 0-2.7 1.8-1.4 1.4-2.7 1.4h-1.8q-0.9 0-5 0-4-0.4-8.1-0.9-3.6-0.5-4.5-0.5-3.6-4-5.8-8.5l0.9-12.6q0.9 0.4 1.3 0.9 0.9 0 2.3 0 0.9 0 6.3-0.5 5.8-0.4 11.7-0.8 5.8-0.5 6.7-0.5h15.3l14.4-1.4-0.4 0.9q1.3 0 4.9-0.9 3.6-0.9 5-0.9 1.3 0 4.9 0.5 4.1 0.4 5.5 0.4h1.7q0.9 0 5-0.4 4.5-0.9 5.4-0.9 1.4 0 4 0.4 3.2 0.5 5 0.5 4.5 0 9.9 0.4 5.8 0 9.9 0.5 0.9 0 1.3 0.4 0.5 0.5 1.8 0.5 1 0 5 0 4.5 0 8.5 0.5 4.1 0 5 0 1.3 0 1.8 0 0.9-0.5 1.3-1 0 1 1.4 1.8 1.3-0.8 3.6-0.8 2.2 0 4-0.5 0 0 0.5 0.5 0.4 0.4 0.4 0.8-4.5 0.9-11.2 2.3-6.8 0.9-8.1 0.9-0.9 0-1.4-0.5-0.4-0.4-1.8-0.4-0.9 0-4 0.9-3.2 0.5-5.9 0.5-0.4 0.4-0.4 1.3-0.9 0-1.8-0.5-0.9-0.8-1.8-0.8-1.4 0-4.5 0.4-3.1 0.4-5.9 0.9-0.9 0.4-0.9 2.2-3.6 0-9.8 0-5.9-0.4-5.9-0.4l-4.1 0.9q0 0-1.8 0.5-1.3 0.4-2.2 1.3v-0.9q-0.5 0.4-1.4 0.4 0.5 0.5 1.4 0.5-1.8 7.2-9.5 17.1-7.6 9.9-18.4 20.2-10.4 10.4-20.3 19.4-9.9 9-16.6 14.8-6.8 5.9-6.8 5.9-0.9 0-5.8 4.5-4.5 4-9.5 8.5-4.5 4.5-6.3 5.9-2.7 2.7-9.9 7.6-6.7 5-15.3 10.4-8.5 4.9-16.2 9-7.2 3.6-10.3 3.6z"/>
</svg>